<mxfile host="app.diagrams.net" agent="Mozilla/5.0 (Windows NT 10.0; Win64; x64) AppleWebKit/537.36 (KHTML, like Gecko) Chrome/141.0.0.0 Safari/537.36" version="28.2.5">
  <diagram name="Página-1" id="g3L8_VCffunA7m2RyKbb">
    <mxGraphModel dx="1111" dy="517" grid="1" gridSize="10" guides="1" tooltips="1" connect="1" arrows="1" fold="1" page="1" pageScale="1" pageWidth="827" pageHeight="1169" math="0" shadow="0">
      <root>
        <mxCell id="0" />
        <mxCell id="1" parent="0" />
        <mxCell id="9RJ5_KFD5nvwRMHBTUOD-1" value="" style="whiteSpace=wrap;html=1;aspect=fixed;" vertex="1" parent="1">
          <mxGeometry x="204" y="90" width="420" height="420" as="geometry" />
        </mxCell>
        <mxCell id="9RJ5_KFD5nvwRMHBTUOD-2" value="Pessoa / Aluno" style="shape=umlActor;verticalLabelPosition=bottom;verticalAlign=top;html=1;outlineConnect=0;" vertex="1" parent="1">
          <mxGeometry x="80" y="210" width="30" height="60" as="geometry" />
        </mxCell>
        <mxCell id="9RJ5_KFD5nvwRMHBTUOD-3" value="Recepcionista" style="shape=umlActor;verticalLabelPosition=bottom;verticalAlign=top;html=1;outlineConnect=0;" vertex="1" parent="1">
          <mxGeometry x="670" y="130" width="30" height="60" as="geometry" />
        </mxCell>
        <mxCell id="9RJ5_KFD5nvwRMHBTUOD-4" value="Secretária" style="shape=umlActor;verticalLabelPosition=bottom;verticalAlign=top;html=1;outlineConnect=0;" vertex="1" parent="1">
          <mxGeometry x="670" y="250" width="30" height="60" as="geometry" />
        </mxCell>
        <mxCell id="9RJ5_KFD5nvwRMHBTUOD-20" value="Sistema de Matrícula Universidade" style="text;html=1;align=center;verticalAlign=middle;whiteSpace=wrap;rounded=0;" vertex="1" parent="1">
          <mxGeometry x="313" y="90" width="201" height="30" as="geometry" />
        </mxCell>
        <mxCell id="9RJ5_KFD5nvwRMHBTUOD-31" value="Iniciar matrícula" style="ellipse;whiteSpace=wrap;html=1;" vertex="1" parent="1">
          <mxGeometry x="250" y="130" width="120" height="80" as="geometry" />
        </mxCell>
        <mxCell id="9RJ5_KFD5nvwRMHBTUOD-32" value="" style="endArrow=none;html=1;rounded=0;fontSize=12;startSize=8;endSize=8;curved=1;entryX=0;entryY=0.5;entryDx=0;entryDy=0;" edge="1" parent="1" source="9RJ5_KFD5nvwRMHBTUOD-2" target="9RJ5_KFD5nvwRMHBTUOD-31">
          <mxGeometry width="50" height="50" relative="1" as="geometry">
            <mxPoint x="540" y="300" as="sourcePoint" />
            <mxPoint x="590" y="250" as="targetPoint" />
          </mxGeometry>
        </mxCell>
        <mxCell id="9RJ5_KFD5nvwRMHBTUOD-33" value="" style="endArrow=none;html=1;rounded=0;fontSize=12;startSize=8;endSize=8;curved=1;entryX=1;entryY=0.5;entryDx=0;entryDy=0;" edge="1" parent="1" source="9RJ5_KFD5nvwRMHBTUOD-3" target="9RJ5_KFD5nvwRMHBTUOD-31">
          <mxGeometry width="50" height="50" relative="1" as="geometry">
            <mxPoint x="540" y="300" as="sourcePoint" />
            <mxPoint x="590" y="250" as="targetPoint" />
          </mxGeometry>
        </mxCell>
        <mxCell id="9RJ5_KFD5nvwRMHBTUOD-34" value="Exibir cursos" style="ellipse;whiteSpace=wrap;html=1;" vertex="1" parent="1">
          <mxGeometry x="440" y="180" width="120" height="80" as="geometry" />
        </mxCell>
        <mxCell id="9RJ5_KFD5nvwRMHBTUOD-35" value="" style="endArrow=none;html=1;rounded=0;fontSize=12;startSize=8;endSize=8;curved=1;exitX=1;exitY=0.5;exitDx=0;exitDy=0;" edge="1" parent="1" source="9RJ5_KFD5nvwRMHBTUOD-34" target="9RJ5_KFD5nvwRMHBTUOD-4">
          <mxGeometry width="50" height="50" relative="1" as="geometry">
            <mxPoint x="540" y="300" as="sourcePoint" />
            <mxPoint x="590" y="250" as="targetPoint" />
          </mxGeometry>
        </mxCell>
        <mxCell id="9RJ5_KFD5nvwRMHBTUOD-36" value="" style="endArrow=none;html=1;rounded=0;fontSize=12;startSize=8;endSize=8;curved=1;entryX=0;entryY=0.5;entryDx=0;entryDy=0;" edge="1" parent="1" source="9RJ5_KFD5nvwRMHBTUOD-2" target="9RJ5_KFD5nvwRMHBTUOD-34">
          <mxGeometry width="50" height="50" relative="1" as="geometry">
            <mxPoint x="540" y="300" as="sourcePoint" />
            <mxPoint x="590" y="250" as="targetPoint" />
          </mxGeometry>
        </mxCell>
        <mxCell id="9RJ5_KFD5nvwRMHBTUOD-37" value="Entregar documentos" style="ellipse;whiteSpace=wrap;html=1;" vertex="1" parent="1">
          <mxGeometry x="290" y="250" width="120" height="80" as="geometry" />
        </mxCell>
        <mxCell id="9RJ5_KFD5nvwRMHBTUOD-38" value="" style="endArrow=none;html=1;rounded=0;fontSize=12;startSize=8;endSize=8;curved=1;" edge="1" parent="1" source="9RJ5_KFD5nvwRMHBTUOD-4" target="9RJ5_KFD5nvwRMHBTUOD-37">
          <mxGeometry width="50" height="50" relative="1" as="geometry">
            <mxPoint x="540" y="300" as="sourcePoint" />
            <mxPoint x="590" y="250" as="targetPoint" />
          </mxGeometry>
        </mxCell>
        <mxCell id="9RJ5_KFD5nvwRMHBTUOD-39" value="" style="endArrow=none;html=1;rounded=0;fontSize=12;startSize=8;endSize=8;curved=1;entryX=0;entryY=0.5;entryDx=0;entryDy=0;" edge="1" parent="1" source="9RJ5_KFD5nvwRMHBTUOD-2" target="9RJ5_KFD5nvwRMHBTUOD-37">
          <mxGeometry width="50" height="50" relative="1" as="geometry">
            <mxPoint x="540" y="300" as="sourcePoint" />
            <mxPoint x="590" y="250" as="targetPoint" />
          </mxGeometry>
        </mxCell>
        <mxCell id="9RJ5_KFD5nvwRMHBTUOD-40" value="Efetivar matrícula" style="ellipse;whiteSpace=wrap;html=1;" vertex="1" parent="1">
          <mxGeometry x="400" y="320" width="120" height="80" as="geometry" />
        </mxCell>
        <mxCell id="9RJ5_KFD5nvwRMHBTUOD-41" value="Informar acesso" style="ellipse;whiteSpace=wrap;html=1;" vertex="1" parent="1">
          <mxGeometry x="460" y="410" width="120" height="80" as="geometry" />
        </mxCell>
        <mxCell id="9RJ5_KFD5nvwRMHBTUOD-42" value="" style="endArrow=none;html=1;rounded=0;fontSize=12;startSize=8;endSize=8;curved=1;exitX=1;exitY=0.5;exitDx=0;exitDy=0;" edge="1" parent="1" source="9RJ5_KFD5nvwRMHBTUOD-40" target="9RJ5_KFD5nvwRMHBTUOD-4">
          <mxGeometry width="50" height="50" relative="1" as="geometry">
            <mxPoint x="540" y="300" as="sourcePoint" />
            <mxPoint x="590" y="250" as="targetPoint" />
          </mxGeometry>
        </mxCell>
        <mxCell id="9RJ5_KFD5nvwRMHBTUOD-43" value="" style="endArrow=none;html=1;rounded=0;fontSize=12;startSize=8;endSize=8;curved=1;exitX=1;exitY=0;exitDx=0;exitDy=0;" edge="1" parent="1" source="9RJ5_KFD5nvwRMHBTUOD-41" target="9RJ5_KFD5nvwRMHBTUOD-4">
          <mxGeometry width="50" height="50" relative="1" as="geometry">
            <mxPoint x="540" y="300" as="sourcePoint" />
            <mxPoint x="590" y="250" as="targetPoint" />
          </mxGeometry>
        </mxCell>
        <mxCell id="9RJ5_KFD5nvwRMHBTUOD-44" value="" style="endArrow=none;html=1;rounded=0;fontSize=12;startSize=8;endSize=8;curved=1;entryX=0;entryY=0.5;entryDx=0;entryDy=0;" edge="1" parent="1" source="9RJ5_KFD5nvwRMHBTUOD-2" target="9RJ5_KFD5nvwRMHBTUOD-41">
          <mxGeometry width="50" height="50" relative="1" as="geometry">
            <mxPoint x="540" y="300" as="sourcePoint" />
            <mxPoint x="590" y="250" as="targetPoint" />
          </mxGeometry>
        </mxCell>
        <mxCell id="9RJ5_KFD5nvwRMHBTUOD-45" value="Testar acesso ao painel" style="ellipse;whiteSpace=wrap;html=1;" vertex="1" parent="1">
          <mxGeometry x="280" y="400" width="120" height="80" as="geometry" />
        </mxCell>
        <mxCell id="9RJ5_KFD5nvwRMHBTUOD-46" value="" style="endArrow=none;html=1;rounded=0;fontSize=12;startSize=8;endSize=8;curved=1;" edge="1" parent="1" source="9RJ5_KFD5nvwRMHBTUOD-45" target="9RJ5_KFD5nvwRMHBTUOD-2">
          <mxGeometry width="50" height="50" relative="1" as="geometry">
            <mxPoint x="540" y="300" as="sourcePoint" />
            <mxPoint x="590" y="250" as="targetPoint" />
          </mxGeometry>
        </mxCell>
      </root>
    </mxGraphModel>
  </diagram>
</mxfile>
